{
  "accessors": [
    {
      "bufferView": 0,
      "componentType": 5126,
      "count": 12517,
      "type": "VEC3",
      "max": [
        0.093490369617939,
        0.613702118396759,
        0.13861888647079468
      ],
      "min": [
        -0.093490369617939,
        0.0,
        -0.21151410043239594
      ]
    },
    {
      "bufferView": 1,
      "componentType": 5126,
      "count": 12517,
      "type": "VEC3",
      "max": [
        1.0,
        1.0,
        1.0
      ],
      "min": [
        -1.0,
        -1.0,
        -1.0
      ]
    },
    {
      "bufferView": 2,
      "componentType": 5126,
      "count": 12517,
      "type": "VEC4",
      "max": [
        1.0,
        1.0,
        1.0,
        1.0
      ],
      "min": [
        -1.0,
        -1.0,
        -1.0,
        -1.0
      ]
    },
    {
      "bufferView": 3,
      "componentType": 5126,
      "count": 12517,
      "type": "VEC2",
      "max": [
        0.99464672803878784,
        0.99747037887573242
      ],
      "min": [
        0.0016347568016499281,
        0.00015433353837579489
      ]
    },
    {
      "bufferView": 4,
      "componentType": 5125,
      "count": 29964,
      "type": "SCALAR",
      "max": [
        12516.0
      ],
      "min": [
        0.0
      ]
    }
  ],
  "asset": {
    "generator": "UnityGLTF (2019.2.19f1)",
    "version": "2.0"
  },
  "buffers": [
    {
      "uri": "Unity2Skfb.bin",
      "byteLength": 720672
    }
  ],
  "bufferViews": [
    {
      "buffer": 0,
      "byteLength": 150204
    },
    {
      "buffer": 0,
      "byteOffset": 150204,
      "byteLength": 150204
    },
    {
      "buffer": 0,
      "byteOffset": 300408,
      "byteLength": 200272
    },
    {
      "buffer": 0,
      "byteOffset": 500680,
      "byteLength": 100136
    },
    {
      "buffer": 0,
      "byteOffset": 600816,
      "byteLength": 119856
    }
  ],
  "images": [
    {
      "uri": "10982_MT_Harp_Normal.jpg",
      "name": "MT_Harp_Normal"
    },
    {
      "uri": "19236_MT_Harp_AlbedoTransparency.jpg",
      "name": "MT_Harp_AlbedoTransparency"
    },
    {
      "uri": "10986_MT_Harp_MetallicSmoothness.png",
      "name": "MT_Harp_MetallicSmoothness"
    }
  ],
  "materials": [
    {
      "pbrMetallicRoughness": {
        "baseColorTexture": {
          "index": 1
        },
        "metallicFactor": 0.0,
        "roughnessFactor": 0.5,
        "metallicRoughnessTexture": {
          "index": 2
        }
      },
      "normalTexture": {
        "index": 0
      },
      "occlusionTexture": {
        "index": 2
      },
      "name": "Harp"
    }
  ],
  "meshes": [
    {
      "primitives": [
        {
          "attributes": {
            "POSITION": 0,
            "NORMAL": 1,
            "TANGENT": 2,
            "TEXCOORD_0": 3
          },
          "indices": 4,
          "material": 0
        }
      ],
      "name": "Harp"
    }
  ],
  "nodes": [
    {
      "mesh": 0,
      "rotation": [
        0.0,
        0.0,
        0.0,
        -1.0
      ],
      "name": "Harp"
    },
    {
      "rotation": [
        0.0,
        0.9865996,
        0.0,
        -0.16316
      ],
      "scale": [
        1.00000012,
        1.0,
        1.00000012
      ],
      "translation": [
        -0.291,
        0.302,
        -0.641
      ],
      "name": "Main Camera"
    },
    {
      "rotation": [
        -0.125850856,
        -0.847642064,
        -0.289273858,
        0.426597148
      ],
      "scale": [
        1.0,
        1.0,
        1.00000012
      ],
      "translation": [
        -0.1214,
        0.3069,
        -0.1798
      ],
      "name": "Directional Light"
    }
  ],
  "samplers": [
    {
      "minFilter": 9729
    }
  ],
  "scene": 0,
  "scenes": [
    {
      "nodes": [
        0,
        1,
        2
      ],
      "name": "Unity2Skfb"
    }
  ],
  "textures": [
    {
      "sampler": 0,
      "source": 0,
      "name": "MT_Harp_Normal"
    },
    {
      "sampler": 0,
      "source": 1,
      "name": "MT_Harp_AlbedoTransparency"
    },
    {
      "sampler": 0,
      "source": 2,
      "name": "MT_Harp_MetallicSmoothness"
    }
  ]
}